<svg width="856" height="856" viewBox="0 0 856 856" fill="none" xmlns="http://www.w3.org/2000/svg">
<path fill-rule="evenodd" clip-rule="evenodd" d="M783.832 0.5C784.108 0.5 784.332 0.723858 784.332 1V854.999C784.332 855.275 784.108 855.499 783.832 855.499C783.555 855.499 783.332 855.275 783.332 854.999V1C783.332 0.723858 783.555 0.5 783.832 0.5Z" fill="white"/>
<path fill-rule="evenodd" clip-rule="evenodd" d="M712.668 0.5C712.944 0.5 713.168 0.723858 713.168 1V854.999C713.168 855.275 712.944 855.499 712.668 855.499C712.392 855.499 712.168 855.275 712.168 854.999V1C712.168 0.723858 712.392 0.5 712.668 0.5Z" fill="white"/>
<path fill-rule="evenodd" clip-rule="evenodd" d="M641.499 0.5C641.775 0.5 641.999 0.723858 641.999 1V854.999C641.999 855.275 641.775 855.499 641.499 855.499C641.223 855.499 640.999 855.275 640.999 854.999V1C640.999 0.723858 641.223 0.5 641.499 0.5Z" fill="white"/>
<path fill-rule="evenodd" clip-rule="evenodd" d="M570.331 0.5C570.607 0.5 570.831 0.723858 570.831 1V854.999C570.831 855.275 570.607 855.499 570.331 855.499C570.054 855.499 569.831 855.275 569.831 854.999V1C569.831 0.723858 570.054 0.5 570.331 0.5Z" fill="white"/>
<path fill-rule="evenodd" clip-rule="evenodd" d="M499.167 0.5C499.443 0.5 499.667 0.723858 499.667 1V854.999C499.667 855.275 499.443 855.499 499.167 855.499C498.891 855.499 498.667 855.275 498.667 854.999V1C498.667 0.723858 498.891 0.5 499.167 0.5Z" fill="white"/>
<path fill-rule="evenodd" clip-rule="evenodd" d="M427.998 0.5C428.274 0.5 428.498 0.723858 428.498 1V854.999C428.498 855.275 428.274 855.499 427.998 855.499C427.721 855.499 427.498 855.275 427.498 854.999V1C427.498 0.723858 427.721 0.5 427.998 0.5Z" fill="white"/>
<path fill-rule="evenodd" clip-rule="evenodd" d="M356.833 0.5C357.11 0.5 357.333 0.723858 357.333 1V854.999C357.333 855.275 357.11 855.499 356.833 855.499C356.557 855.499 356.333 855.275 356.333 854.999V1C356.333 0.723858 356.557 0.5 356.833 0.5Z" fill="white"/>
<path fill-rule="evenodd" clip-rule="evenodd" d="M285.666 0.5C285.942 0.5 286.166 0.723858 286.166 1V854.999C286.166 855.275 285.942 855.499 285.666 855.499C285.389 855.499 285.166 855.275 285.166 854.999V1C285.166 0.723858 285.389 0.5 285.666 0.5Z" fill="white"/>
<path fill-rule="evenodd" clip-rule="evenodd" d="M214.501 0.5C214.777 0.5 215.001 0.723858 215.001 1V854.999C215.001 855.275 214.777 855.499 214.501 855.499C214.225 855.499 214.001 855.275 214.001 854.999V1C214.001 0.723858 214.225 0.5 214.501 0.5Z" fill="white"/>
<path fill-rule="evenodd" clip-rule="evenodd" d="M143.333 0.5C143.609 0.5 143.833 0.723858 143.833 1V854.999C143.833 855.275 143.609 855.499 143.333 855.499C143.056 855.499 142.833 855.275 142.833 854.999V1C142.833 0.723858 143.056 0.5 143.333 0.5Z" fill="white"/>
<path fill-rule="evenodd" clip-rule="evenodd" d="M72.168 0.5C72.4441 0.5 72.668 0.723858 72.668 1V854.999C72.668 855.275 72.4441 855.499 72.168 855.499C71.8918 855.499 71.668 855.275 71.668 854.999V1C71.668 0.723858 71.8918 0.5 72.168 0.5Z" fill="white"/>
<path fill-rule="evenodd" clip-rule="evenodd" d="M0.5 72.1675C0.5 71.8913 0.723858 71.6675 1 71.6675H855C855.276 71.6675 855.5 71.8913 855.5 72.1675C855.5 72.4436 855.276 72.6675 855 72.6675H1C0.723858 72.6675 0.5 72.4436 0.5 72.1675Z" fill="white"/>
<path fill-rule="evenodd" clip-rule="evenodd" d="M0.5 143.332C0.5 143.056 0.723858 142.832 1 142.832H855C855.276 142.832 855.5 143.056 855.5 143.332C855.5 143.608 855.276 143.832 855 143.832H1C0.723858 143.832 0.5 143.608 0.5 143.332Z" fill="white"/>
<path fill-rule="evenodd" clip-rule="evenodd" d="M0.5 214.501C0.5 214.225 0.723858 214.001 1 214.001H855C855.276 214.001 855.5 214.225 855.5 214.501C855.5 214.777 855.276 215.001 855 215.001H1C0.723858 215.001 0.5 214.777 0.5 214.501Z" fill="white"/>
<path fill-rule="evenodd" clip-rule="evenodd" d="M0.5 285.665C0.5 285.388 0.723858 285.165 1 285.165H855C855.276 285.165 855.5 285.388 855.5 285.665C855.5 285.941 855.276 286.165 855 286.165H1C0.723858 286.165 0.5 285.941 0.5 285.665Z" fill="white"/>
<path fill-rule="evenodd" clip-rule="evenodd" d="M0.5 356.833C0.5 356.557 0.723858 356.333 1 356.333H855C855.276 356.333 855.5 356.557 855.5 356.833C855.5 357.109 855.276 357.333 855 357.333H1C0.723858 357.333 0.5 357.109 0.5 356.833Z" fill="white"/>
<path fill-rule="evenodd" clip-rule="evenodd" d="M0.5 427.997C0.5 427.721 0.723858 427.497 1 427.497H855C855.276 427.497 855.5 427.721 855.5 427.997C855.5 428.273 855.276 428.497 855 428.497H1C0.723858 428.497 0.5 428.273 0.5 427.997Z" fill="white"/>
<path fill-rule="evenodd" clip-rule="evenodd" d="M0.5 499.166C0.5 498.889 0.723858 498.666 1 498.666H855C855.276 498.666 855.5 498.889 855.5 499.166C855.5 499.442 855.276 499.666 855 499.666H1C0.723858 499.666 0.5 499.442 0.5 499.166Z" fill="white"/>
<path fill-rule="evenodd" clip-rule="evenodd" d="M0.5 570.331C0.5 570.054 0.723858 569.831 1 569.831H855C855.276 569.831 855.5 570.054 855.5 570.331C855.5 570.607 855.276 570.831 855 570.831H1C0.723858 570.831 0.5 570.607 0.5 570.331Z" fill="white"/>
<path fill-rule="evenodd" clip-rule="evenodd" d="M0.5 641.498C0.5 641.222 0.723858 640.998 1 640.998H855C855.276 640.998 855.5 641.222 855.5 641.498C855.5 641.774 855.276 641.998 855 641.998H1C0.723858 641.998 0.5 641.774 0.5 641.498Z" fill="white"/>
<path fill-rule="evenodd" clip-rule="evenodd" d="M0.5 712.667C0.5 712.391 0.723858 712.167 1 712.167H855C855.276 712.167 855.5 712.391 855.5 712.667C855.5 712.943 855.276 713.167 855 713.167H1C0.723858 713.167 0.5 712.943 0.5 712.667Z" fill="white"/>
<path fill-rule="evenodd" clip-rule="evenodd" d="M0.5 783.83C0.5 783.554 0.723858 783.33 1 783.33H855C855.276 783.33 855.5 783.554 855.5 783.83C855.5 784.106 855.276 784.33 855 784.33H1C0.723858 784.33 0.5 784.106 0.5 783.83Z" fill="white"/>
</svg>
