<svg width="856" height="856" viewBox="0 0 856 856" fill="none" xmlns="http://www.w3.org/2000/svg">
<path d="M783.832 1V854.999M712.668 1V854.999M641.499 1V854.999M570.331 1V854.999M499.167 1V854.999M427.998 1V854.999M356.834 1V854.999M285.666 1V854.999M214.501 1V854.999M143.333 1V854.999M72.1681 1V854.999M1 72.1676H855M1 143.332H855M1 214.501H855M1 285.665H855M1 356.833H855M1 427.997H855M1 499.166H855M1 570.331H855M1 641.498H855M1 712.667H855M1 783.83H855" stroke="white" stroke-linecap="round" stroke-linejoin="round"/>
</svg>
